<?xml version="1.0" standalone="no"?>
<!DOCTYPE svg PUBLIC "-//W3C//DTD SVG 20010904//EN"
 "http://www.w3.org/TR/2001/REC-SVG-20010904/DTD/svg10.dtd">
<svg version="1.0" xmlns="http://www.w3.org/2000/svg"
width="125" height="34" viewBox="0 0 512.000000 512.000000"
 preserveAspectRatio="xMidYMid meet">

<g transform="translate(0.000000,512.000000) scale(0.100000,-0.100000)"
fill="#000000" stroke="none">
<path d="M1417 3920 c-113 -19 -218 -99 -273 -207 -26 -53 -29 -67 -29 -158 0
-93 2 -105 32 -166 39 -79 102 -140 181 -177 49 -23 70 -27 152 -27 83 0 103
4 156 28 73 34 141 101 180 176 36 71 46 201 20 279 -58 173 -239 282 -419
252z"/>
<path d="M3582 3909 c-112 -15 -227 -100 -280 -209 -24 -49 -27 -66 -27 -160
0 -91 3 -112 25 -155 30 -62 99 -137 154 -168 145 -81 337 -55 448 61 85 89
113 167 106 291 -13 217 -203 370 -426 340z"/>
<path d="M770 3213 c-29 -16 -65 -44 -81 -63 -28 -36 -392 -786 -435 -898 -95
-248 29 -521 284 -628 l57 -23 -216 -1 -217 0 -53 -28 c-94 -49 -133 -162 -90
-258 25 -56 83 -101 147 -114 34 -7 260 -10 680 -8 698 3 669 0 742 71 116
111 103 305 -26 389 -20 14 -143 69 -271 124 -176 74 -244 108 -269 133 -63
63 -65 71 -74 450 -4 190 -6 346 -5 348 2 1 38 -122 82 -275 99 -351 108 -376
150 -408 37 -28 704 -244 755 -244 104 0 191 112 161 209 -14 48 -44 87 -83
107 -17 9 -150 53 -297 100 -146 46 -272 87 -280 92 -12 7 -165 512 -155 512
2 0 36 -55 75 -122 40 -68 77 -129 84 -136 9 -10 22 10 59 94 46 102 48 111
44 175 -6 77 -39 144 -88 179 -33 23 -203 108 -387 194 -149 68 -206 74 -293
29z"/>
<path d="M4010 3161 c-356 -168 -365 -174 -404 -253 -20 -39 -26 -67 -26 -114
0 -35 4 -65 9 -69 6 -3 47 27 93 67 46 39 94 81 107 92 17 14 10 0 -20 -44
-25 -36 -107 -153 -181 -260 l-136 -195 -292 -205 c-161 -113 -303 -218 -316
-233 -58 -69 -52 -161 15 -228 48 -49 113 -61 176 -33 23 11 182 117 353 238
l311 219 193 278 c106 153 193 277 195 276 1 -2 -45 -128 -102 -281 -58 -153
-105 -287 -105 -298 0 -10 20 -59 46 -109 25 -50 44 -95 42 -101 -2 -6 -105
-63 -228 -128 -123 -65 -238 -130 -256 -144 -48 -38 -84 -118 -84 -188 0 -100
45 -175 132 -224 l53 -29 659 -3 c441 -2 676 1 711 8 94 19 164 103 165 196 0
27 -10 61 -28 95 -22 43 -38 59 -81 81 l-53 28 -217 0 -216 1 57 23 c255 107
379 380 284 628 -43 112 -407 862 -435 898 -44 54 -121 90 -195 90 -55 0 -76
-8 -226 -79z"/>
<path d="M2032 1598 c-7 -7 -12 -43 -12 -90 l0 -78 -80 0 c-78 0 -80 -1 -115
-35 -29 -30 -35 -43 -35 -80 0 -54 35 -100 88 -115 50 -14 1194 -14 1244 0 74
21 109 101 74 169 -25 48 -55 60 -158 63 l-93 3 -3 80 c-2 48 -8 82 -15 87
-19 12 -132 9 -145 -4 -7 -7 -12 -43 -12 -90 l0 -78 -162 2 -163 3 -3 80 c-2
48 -8 82 -15 87 -19 12 -132 9 -145 -4 -7 -7 -12 -43 -12 -91 l0 -78 -37 3
-38 3 -3 75 c-2 41 -8 80 -14 87 -14 17 -130 17 -146 1z"/>
</g>
</svg>
