<svg xmlns:xlink="http://www.w3.org/1999/xlink" width="125" height="34" viewBox="0 0 125 34" fill="none" xmlns="http://www.w3.org/2000/svg"><path fill-rule="evenodd" clip-rule="evenodd" d="M103.533 8.222a2.1 2.1 0 0 1 .649-1.539c.432-.432.95-.648 1.554-.648a2.14 2.14 0 0 1 1.569.648c.432.423.648.94.648 1.554 0 .614-.216 1.137-.648 1.569a2.09 2.09 0 0 1-1.554.649 2.136 2.136 0 0 1-1.569-.649 2.153 2.153 0 0 1-.649-1.584zm4.081 21.868V13.563h-3.563V30.09h3.563z" fill="#000"></path><path d="M97.213 13.58h3.58v16.527h-3.58v-1.73c-1.573 1.47-3.264 2.205-5.074 2.205-2.285 0-4.174-.826-5.667-2.477-1.482-1.686-2.223-3.79-2.223-6.312 0-2.478.741-4.542 2.223-6.194 1.482-1.651 3.337-2.477 5.565-2.477 1.923 0 3.649.792 5.176 2.375V13.58zm-9.316 8.213c0 1.583.424 2.873 1.272 3.868.871 1.007 2.224 1.68 3.547 1.68 1.414 0 2.557-.656 3.428-1.629.87-1.007 1.306-2.285 1.306-3.835 0-1.55-.435-2.828-1.306-3.834-.871-.985-2.003-1.647-3.394-1.647-1.312 0-2.664.668-3.547 1.664-.87 1.006-1.306 2.25-1.306 3.733zM73.524 13.58h3.648v1.477c.702-.735 1.324-1.239 1.867-1.51.554-.283 1.21-.424 1.968-.424 1.007 0 2.059.328 3.156.984l-1.748 3.495c-.724-.52-1.43-.78-2.12-.78-2.082 0-3.123 1.572-3.123 4.717v8.569h-3.648V13.581zM110.672 13.572h3.58v1.527c1.335-1.324 2.839-1.986 4.513-1.986 1.923 0 3.422.606 4.497 1.816.927 1.03 1.391 2.71 1.391 5.04v10.13h-3.835v-9.231c0-1.629-.226-2.755-.678-3.377-.442-.633-1.245-.95-2.41-.95-1.267 0-2.166.419-2.698 1.256-.52.825-.78 2.268-.78 4.327v7.975h-3.58V13.572zM71.08 16.635H60.509v3.546h6.278c-.181 1.844-1.047 3.428-2.597 4.752-1.55 1.312-3.297 1.968-5.243 1.968-2.285 0-4.406-.877-6.363-2.63-2.093-1.89-3.139-4.293-3.139-7.212 0-2.828.94-5.18 2.817-7.059 1.878-1.911 4.202-2.867 6.974-2.867 2.4 0 4.516.864 6.349 2.592l2.688-2.689c-1.11-1.026-2.234-1.82-3.37-2.38-1.776-.838-3.688-1.256-5.735-1.256-3.812 0-7.047 1.33-9.706 3.987-2.658 2.647-3.987 5.871-3.987 9.672 0 3.722 1.306 6.912 3.92 9.57 2.612 2.647 5.752 3.97 9.417 3.97 3.755 0 6.85-1.368 9.281-4.105 1.075-1.222 1.838-2.534 2.29-3.937.465-1.516.697-3.258.697-5.226v-.696z" fill="#000"></path><path d="M13.798.4a5.907 5.907 0 0 1 4.278 0c1.546.601 3.071 1.3 4.569 2.098.311.166.263.627-.07.743C14.383 6.108 8.508 13.906 8.508 23.077c0 2.856.57 5.58 1.603 8.063.146.35-.221.708-.558.532a42.262 42.262 0 0 1-6.922-4.52 5.907 5.907 0 0 1-2.139-3.705A42.261 42.261 0 0 1 0 17c0-2.193.168-4.346.492-6.447a5.907 5.907 0 0 1 2.14-3.705 42.261 42.261 0 0 1 5.336-3.65A42.263 42.263 0 0 1 13.798.4z" fill="#00B96C"></path><path d="M29.243 6.849a42.393 42.393 0 0 0-.58-.458 1.847 1.847 0 0 0-1.461-.365c-8.9 1.625-15.647 9.419-15.647 18.788 0 2.912.651 5.672 1.817 8.142.18.382.514.668.913.808a5.907 5.907 0 0 0 3.791-.165c1.983-.77 3.931-1.7 5.83-2.797a42.258 42.258 0 0 0 5.337-3.65 5.907 5.907 0 0 0 2.139-3.704c.324-2.102.492-4.255.492-6.447 0-2.193-.168-4.346-.492-6.447a5.907 5.907 0 0 0-2.139-3.705z" fill="#00B96C"></path></svg>